/* XPM */
static char *ba7af0629ff146c2eb8aaa2570c74065XJjcPZ2aMDzr865f[] = {
/* columns rows colors chars-per-pixel */
"64 64 223 2 ",
"   c #E86C3C",
".  c #E86D3C",
"X  c #E86D3D",
"o  c #D97045",
"O  c #DA7045",
"+  c #D97147",
"@  c #DB764B",
"#  c #DA764C",
"$  c #DB764C",
"%  c #DB774D",
"&  c #DC784E",
"*  c #E86F40",
"=  c #E87040",
"-  c #E87041",
";  c #E97242",
":  c #E87243",
">  c #E97243",
",  c #E87343",
"<  c #E97343",
"1  c #E97344",
"2  c #E87445",
"3  c #E97445",
"4  c #E97545",
"5  c #E87647",
"6  c #E97647",
"7  c #E97749",
"8  c #E97849",
"9  c #E9784A",
"0  c #EA784A",
"q  c #EA794B",
"w  c #EA7A4B",
"e  c #EC794B",
"r  c #EC7A4B",
"t  c #EA7A4C",
"y  c #EB7A4C",
"u  c #EB7B4C",
"i  c #EA7B4D",
"p  c #EC7B4D",
"a  c #EB7C4E",
"s  c #EA7D4F",
"d  c #EC7C4E",
"f  c #EC7D4E",
"g  c #EC7D4F",
"h  c #EB7E50",
"j  c #EB7F52",
"k  c #EC7E50",
"l  c #EC7F51",
"z  c #EC8053",
"x  c #ED8053",
"c  c #ED8153",
"v  c #ED8154",
"b  c #EC8357",
"n  c #ED8357",
"m  c #ED8457",
"M  c #EC8458",
"N  c #ED8458",
"B  c #ED8558",
"V  c #ED8559",
"C  c #ED865A",
"Z  c #EE875B",
"A  c #EE895E",
"S  c #EF8A5E",
"D  c #EE8A5F",
"F  c #EF8B5F",
"G  c #EF8B60",
"H  c #EF8C61",
"J  c #EF8D62",
"K  c #F2A078",
"L  c #F2A079",
"P  c #F3A179",
"I  c #F2A07A",
"U  c #F2A17A",
"Y  c #F3A17A",
"T  c #F2A17B",
"R  c #F3A27B",
"E  c #F3A47E",
"W  c #F3A57F",
"Q  c #F4A57E",
"!  c #F4A57F",
"~  c #F5A67F",
"^  c #E5A685",
"/  c #E4A686",
"(  c #EAA987",
")  c #E6A989",
"_  c #E4A98A",
"`  c #EAAD8B",
"'  c #F3A580",
"]  c #F4A680",
"[  c #F5A781",
"{  c #F5A983",
"}  c #F5AC88",
"|  c #F4AD88",
" . c #F5AD89",
".. c #F6AC88",
"X. c #F6AD88",
"o. c #F4AE89",
"O. c #F5AE89",
"+. c #F4AE8A",
"@. c #F5AE8A",
"#. c #F4AF8A",
"$. c #F4AF8B",
"%. c #F5AF8B",
"&. c #F6AE8A",
"*. c #F6AF8B",
"=. c #F6B08B",
"-. c #F4B08C",
";. c #F5B08C",
":. c #F4B18D",
">. c #F6B08C",
",. c #F6B18C",
"<. c #F6B18D",
"1. c #F4B18E",
"2. c #F4B28E",
"3. c #F4B28F",
"4. c #F4B38F",
"5. c #F6B28E",
"6. c #F7B28E",
"7. c #F7B38E",
"8. c #F7B38F",
"9. c #F4B390",
"0. c #F7B390",
"q. c #F4B491",
"w. c #F6B895",
"e. c #F7B895",
"r. c #F8B895",
"t. c #F6BB99",
"y. c #F9BA98",
"u. c #F9BB98",
"i. c #DCC5AE",
"p. c #DCCAB4",
"a. c #DCCBB5",
"s. c #DCD0BB",
"d. c #F8C1A1",
"f. c #F8C2A1",
"g. c #F8C4A4",
"h. c #FAC5A4",
"j. c #F9C6A7",
"k. c #FAC7A7",
"l. c #F9C7A8",
"z. c #FAC7A8",
"x. c #F9C8A9",
"c. c #FAC8A9",
"v. c #F9C9AA",
"b. c #FAC9AA",
"n. c #FACAAB",
"m. c #FBCAAB",
"M. c #FACBAB",
"N. c #FBCBAB",
"B. c #F9CBAC",
"V. c #FBCDAD",
"C. c #FBCCAE",
"Z. c #FACDAE",
"A. c #EBD2BA",
"S. c #ECD1B8",
"D. c #ECD3BA",
"F. c #ECD3BB",
"G. c #EDD6BE",
"H. c #EDD8BF",
"J. c #FBD5B7",
"K. c #FBD5B8",
"L. c #FBD6B9",
"P. c #FCD7BA",
"I. c #FCD8BC",
"U. c #FCDABD",
"Y. c #FCDABE",
"T. c #FDDABE",
"R. c #FCDBBF",
"E. c #FDDBBF",
"W. c #EDD9C0",
"Q. c #ECD9C1",
"!. c #EDD9C1",
"~. c #EDD9C2",
"^. c #EDD9C3",
"/. c #EDDAC3",
"(. c #EDDBC4",
"). c #EDDCC5",
"_. c #EDDDC7",
"`. c #EDDEC8",
"'. c #EDDFCA",
"]. c #F1DFC7",
"[. c #FDDCC0",
"{. c #FDDCC1",
"}. c #FDDDC1",
"|. c #FDDFC4",
" X c #EDE0CA",
".X c #EDE0CB",
"XX c #EDE1CB",
"oX c #EDE1CC",
"OX c #EDE2CC",
"+X c #EDE3CD",
"@X c #FDE0C5",
"#X c #F1E0C9",
"$X c #FEE3C9",
"%X c #FDE4CA",
"&X c #FDE4CB",
"*X c #FEE5CB",
"=X c #FFE5CB",
"-X c #FEE6CD",
";X c #FEE7CD",
":X c #FFE7CD",
">X c #FEE7CE",
",X c #FFE7CE",
"<X c #FFE8CE",
"1X c #FEE8CF",
"2X c #FFE8CF",
"3X c #FEE9CF",
"4X c #FFE9CF",
"5X c #FEE9D0",
"6X c #FFE9D0",
"7X c #FFEAD0",
"8X c #FEEAD1",
"9X c #FFEAD1",
"0X c #FFEBD2",
"qX c #FFEDD4",
"wX c #FFEDD5",
"eX c #FFEED5",
"rX c #FFEED6",
"tX c #FFF1D9",
"yX c #FFF1DA",
"uX c #FFF2DB",
"iX c #FFF3DC",
"pX c #FFF3DD",
"aX c #FFF4DD",
/* pixels */
"i.~.~.~.~.~.~.~.~.~._.OX~.~.~.~.~.~.~.~.(.G.G.~.~.~.~.~.~.~.~.(.OX_.~.~.~.~.~.~.~.~.G.G.~.~.~.~.~.~.~.~.~.`.`.~.~.~.~.~.~.~.(.p.",
"#Xu.5.0.0.0.0.0.0.0.8.5.0.0.0.0.0.0.0.0.$.Y.C.5.0.0.0.0.0.0.0.0.8.8.0.0.0.0.0.0.8.5.C.T.5.0.0.0.0.0.0.0.8.8.0.0.0.0.0.0.0.0.8.` ",
"~.v - 3 1 1 1 1 1 1 1 1 1 1 1 1 1 1 1 1 X d.~ X 3 3 3 - 1 1 3 3 - 3 1 1 1 1 1 1 1 X R g.X 3 3 1 1 1 1 1 1 1 1 1 1 1 1 1 1 1 - O ",
"H.Z 7 t t t t t t t t t t t t t t t t t 3 g.{ 3 8 t t i t t t t t t t t t t t t t 3 ] k.3 8 t t t t t t t t t t t t t t t 8 p % ",
"H.Z 8 t t t t t t t t t t t t t t t t t 3 g.{ 3 t t t t t t t t t t t t t t t t t 3 ' v.3 t t t t t t t t t t t t t t t t t t % ",
"~.Z 8 t t t t t t t t t t t t t t t t t 3 g.{ 3 t t t t t t t t t t t t t t t t t 3 ' g.3 t t t t t t t t t t t t t t t t t 7 % ",
"H.Z 8 t t t t t t t t t t t t t t t t t 3 g.{ 3 t t t t t t t t t t t t t t t t t 3 ' z.3 t t t t t t t t t t t t t t t t t p @ ",
"H.Z 8 t t t t t t t t t t t t t t t t t 3 g.{ 3 t t t t t t t t t t t t t t t t t 3 ' z.3 t t t t t t t t t t t t t t t t t 7 % ",
"~.Z 7 t t t t t t t t t t t t t t t t t 1 g.{ 3 t t t t t t t t t t t t t t t t t 3 ] z.3 t t t t t t t t t t t t t t t t t e $ ",
"~.Z 7 t t t t t t t t t t t t t t t t t 1 g.{ 3 t t t t t t t t t t t t t t t t t 3 ' z.3 t t t t t t t t t t t t t t t t t e $ ",
"H.Z 7 t t t t t t t t t t t t t t t t t 3 g.{ 3 t t t t t t t t t t t t t t t t t 3 ' z.1 t t t t t t t t t t t t t t t t t e $ ",
"H.c * 1 1 1 1 1 1 1 1 1 1 1 1 1 1 1 1 1 X d.~   1 1 1 1 1 1 1 1 1 1 1 1 1 1 1 1 3 X L g.X 1 1 1 - 3 3 3 - 3 , , 1 1 1 1 1 1 - o ",
"_.e.-.-.$.$.5.$.$.5.+.+.5.5.$.$.5.$.$.5.| T.v.$.:.$.5.$.5.$.$.5.+.-.5.:.$.:.$.$.5.| g.[.+.+.5.$.5.5.+.5.-.+.+.5.$.$.5.$.$.5.$./ ",
"D.1X4X1X5X5X5X5X1X5XwXiX1X1X5X5X5X5X5X5X5X*X,X5X5X5X5X5X5X5X5X5XaX5X5X5X5X5X5X5X1X5X,X,X5X5X5X5X5X5X1X1X1XtXwX1X5X5X5X5X5X5X5X~.",
"& v v v v v v v v d ] P.l v v v v v v v v v v v v v v v v v j H @XH l v v v v v v v v v v v v v v v v v d C.] p v v v v v v v % ",
"+ 8 8 8 t 8 8 t 8 - L K.1 8 8 8 7 7 t 8 8 8 t 7 7 t 8 7 8 8 5 M @Xm 3 8 7 8 8 t 8 8 8 t 8 t 7 8 t 8 8 8 1 z.L 1 7 t 7 t 8 8 7 + ",
"+ i t t t t t t t 3 L K.7 t t t t t t t t t t t t t t t t t 8 Z |.Z 7 t t t t t t t t t t t t t t t t t 3 k.L 3 8 i t t t t t + ",
"+ t t t t t t t t 3 L K.3 t t t t t t t t t t t t t t t t t 3 Z |.Z 8 t t t t t t t t t t t t t t t t t 3 v.~ , t t t t t t t + ",
"+ t t t t t t t t 3 E K.8 t t t t t t t t t t t t t t t t t 7 Z |.v 7 t t t t t t t t t t t t t t t t t 3 k.R 3 t t t t t t t + ",
"+ t t t t t t t t 3 L K.3 i t t t t t t t t t t t t t t t t 7 Z |.Z 7 t t t t t t t t t t t t t t t t t 3 v.R 3 t t t t t t t + ",
"+ t t t t t t t t 3 L K.7 t t t t t t t t t t t t t t t t i 8 M |.b 7 8 t t t t t t t t t t t t t t t t 3 z.R 3 t t t t t t t + ",
"+ t t t t t t t t 3 L K.3 t t t t t t t t t t t t t t t t 8 8 Z |.Z 8 t t t t t t t t t t t t t t t t t 3 z.R 3 t t t t t t t + ",
"+ t p t t p t t t 3 L J.7 t t t t t t t t t t t t t t t t t 8 Z @Xv 8 t t t t p t t t t t t t t t t t t 3 v.E 3 t t t t t p t + ",
"+ 7 7 t 8 8 8 8 e - I P.3 8 8 8 p 8 7 e 8 t 8 8 p 8 8 t 8 8 3 Z |.Z 7 8 p 7 7 7 7 p 8 7 e 8 8 8 7 8 t 7 3 g.L - 8 7 e 8 8 8 8 + ",
"$ j j j l l j j j t E K.i c j j j j j j z j j j j z j j c j i H @XA i c j j j j c j j j j j c j j j j l t v.R t j j l l j j j $ ",
"A.,X5X5X5X5X5X5X5X5XwXiX1X5X1X5X1X5X5X5X1X*X,X1X1X5X5X1X5X5X5X5XaX5X5X5X5X5X5X5X5X5X,X$X5X1X5X5X5X5X5X5X1XiXwX,X5X5X5X5X5X5X5XQ.",
"`.u.5.5.8.8.0.0.8.0.5.5.8.8.8.8.8.0.0.5.=.T.V.-.8.0.8.8.0.8.8.5.5.5.5.0.0.5.0.5.8.=.c.|.-.0.0.8.0.5.0.0.0.5.8.8.0.0.0.8.8.0.5.) ",
"~.v - 1 1 1 1 1 1 1 1 - 1 1 1 1 1 1 1 1 . d.~ X 3 3 - 3 3 - 3 3 1 1 1 1 3 1 1 3 3 X R g.. - 3 , 1 3 1 1 1 - 1 1 1 1 1 1 1 3 - + ",
"H.Z 8 t t t t t t t t t t t t t t t t t 1 g.{ 3 8 i t t t t t t t t t t 8 t t t t 3 ] g.3 t t t t t t t t t t t t t t t t t 8 % ",
"H.Z 8 t t t t t t t t t t t t t t t t t 3 g.{ 3 t t t t t t t t t t t t t t t t t 3 ' z.3 t t t t t t t t t t t t t t t t t e % ",
"~.Z 8 t t t t t t t t t t t t t t t t t 3 g.{ 3 t t t t t t t t t t t t t t t t t 3 ] c.3 t t t t t t t t t t t t t t t t t 8 % ",
"H.Z 7 8 t t t t t t t t t t t t t t t t 3 g.{ 3 t t t t t t t t t t t t t t t t t 3 ] g.3 t t t t t t t t t t t t t t t t p 8 % ",
"~.Z 7 t t t t t t t t t t t t t t t t t 3 g.{ 3 t t t t t t t t t t t t t t t t t 3 ] z.1 t t t t t t t t t t t t t t t t t 8 % ",
"H.Z 7 t t t t t t t t t t t t t t t t t 3 g.{ 3 t t t t t t t t t t t t t t t t t 3 ' z.3 t t t t t t t t t t t t t t t t t 8 % ",
"H.Z 7 t t t t t t t t t t t t t t t t t 3 g.{ 3 t t t t t t t t t t t t t t t t t 1 ] k.3 t t t t t t t t t t t t t t t t t p % ",
"~.Z 7 t t t t t t t t t t t t t t t t 8 3 g.{ 1 t t t t t t t t t t t t t t t t t 1 ] z.3 t t t t t t t t t t t t t t t t t 7 @ ",
"H.c - , - 3 1 1 3 1 1 1 1 1 1 - 3 3 1 1   f.W . 3 3 1 1 - 3 1 - 3 - 3 - 3 3 1 1 1 X L g.X 1 1 1 1 1 1 1 1 1 3 1 1 1 1 1 1 1 1 o ",
"_.e.+.5.5.5.5.+.5.+.+.+.5.5.$.5.5.+.+.5.{ Y.Z.| 5.+.+.5.5.5.5.+.+.+.5.5.5.+.+.5.5.+.z.[...5.$.5.+.5.+.5.5.+.+.5.$.$.5.5.$.5.+.^ ",
"A.5X5X5X5X5X5X5X5X5XwXaX5X5X5X5X5X5X5X5X5X,X,X5X5X5X5X5X5X5X5X5XaX0X1X5X5X5X5X5X5X5X,X,X5X5X5X5X5X5X5X5X1XtXwX5X5X5X5X5X5X5X5X~.",
"% c c c c v v c v t ' K.i v v l v c v v z z z v v c v v z v z H @XF j v v c v v j l j v j v v j v v v v e v.] t v v j v v v j % ",
"+ 8 8 8 e 7 8 p 8 1 I K.3 8 8 p 8 8 t 7 e 7 7 p 8 8 8 t 8 8 5 v @Xv 3 8 8 t 8 8 t 7 7 p 7 7 e 7 8 8 8 8 , z.R - 8 t 7 7 p 7 7 o ",
"+ t t t t t t t t 3 L K.7 t t t t t t t t t t t t t t t t p 7 Z |.Z 8 t t t t t t t t t t t t t p t p t 3 g.~ 3 t t t t t t p + ",
"+ t t t t t t t t 3 E K.3 t t t t t t t t t t t t t t t t t 7 Z |.Z 8 t t t t t t t t t t t t t t t i t 3 v.L 3 t t t t t t t + ",
"+ t t t t t t t t 3 L K.7 8 t t t t t t t t t t t t t t t t 8 Z |.Z 8 t t t t t t t t t t t t t t t i 8 3 k.~ 3 t t t t t t t + ",
"o t t t t t t t t 3 L K.3 t t t t t t t t t t t t t t t i 8 8 M |.Z 8 t t t t t t t t t t t t t t t t t 3 v.L 3 t t t t t t t + ",
"+ t t t t t t t t 3 L K.7 t t t t t t t t t t t t t t t i i 8 Z |.b 8 t t t t t t t t t t t t t t t t t 3 z.L 3 t t t t t t t + ",
"+ t t t t t t t t 3 I J.3 t t t t t t t t t t t t t t t t t 8 Z |.b 7 t t t t t t t t t t t t t t t t t 3 v.E 1 t t t t t t t + ",
"+ t t t t t t t t 1 L P.7 t t t t t t t t t t t t t t t t t 3 Z |.Z 7 8 t t t t t t t t t t t t t t t t 3 z.L 1 t t t t t t t + ",
"o 7 7 7 5 8 8 5 8 - L K.3 8 8 8 5 8 8 7 8 8 8 8 t 8 8 8 8 8 8 Z @Xm 5 5 8 8 8 8 8 8 7 7 8 8 8 8 8 t 7 7 , g.L - 8 8 5 8 8 5 8 + ",
"% l l l z c c z c p W K.i c l l z c c c l j i j c j l l d c i F @XF d z j z z c l l j j l l l c l l l l e v.{ e c c z z z z z @ ",
"S.,X5X,X1X1X1X1X1X1X0XiX1X1X1X1X1X1X1X5X1X$X*X,X1X1X1X1X1X1X1X5XiX1X1X1X1X1X1X1X1X1X,X$X5X,X5X1X1X1X5X,X1XtXwX1X1X1X1X1X1X1X:XH.",
"`.t.9.0.q.q.0.0.8.q.4.:.0.q.q.0.q.q.0.0.5.Y.Z.5.0.q.q.0.q.q.0.0.:.8.q.q.4.8.0.0.0.5.v.|.:.0.q.0.0.q.q.0.q.:.8.0.0.q.8.q.8.q.4.) ",
"~.l * - 3 , , , , 3 , , , 3 , , 1 1 1 - X d.] X , , , , , , , , 3 3 , , - 3 , 3 ,   L g.X 1 1 - 5 - , , , , 3 , , , 3 - , , , + ",
"~.Z 7 t t t t t p 8 p t 8 i i 8 t t t t 1 g.{ 3 i 8 t t 8 p t t 8 i i 8 t t p 8 8 3 ] v.3 t t t i 8 t t 8 p t t p t t t 8 i 8 @ ",
"H.Z 8 t t t t t 8 d t t t t i t t t t t 1 g.{ 3 i t t t d t t t t t i t t t t t t 3 ' g.3 t t t i t t t i t t t 8 d t t t t 8 & ",
"H.Z 8 t t t t t t t t t t t t t t t t t 1 g.{ 3 t t t t t t t t t t t t t t t t t 3 ] v.3 t t t t t t t t t t t t t t t t p 8 % ",
"W.Z 7 t t t t t t t t t t t t t t t t t 1 g.{ 3 t t t t t t t t t t t t t t t t t 3 ] z.1 t t t t t t t t t t t t t t t t t 8 % ",
"W.Z 7 t t t t t t t t t t t t t t t t t 1 g.{ 3 t t t t t t t t t t t t t t t t t 1 ' z.3 t t t t t t t t t t t t t t t t t 8 % ",
"W.Z 7 t t t t t t t t t t t t t t t t t 1 g.{ 3 t t t t t t t t t t t t t t t t t 1 ] z.3 t t t t t t t t t t t t t t t t t p % ",
"W.Z 7 t t t t t t t t t t t t t t t t t 3 g.{ 3 t t t t t t t t t t t t t t t t t 1 ' z.3 t t t t t t t t t t t t t t t t t 8 @ ",
"W.Z 7 p t t t t t t p p t i t t p t t t 1 g.{ 1 t t t t p t t t t t t p t p 8 t p 1 ] z.6 t t p t t t t p t t t t t t p t t t % ",
"W.j * 1 1 1 1 1 3 3 - - 3 - 3 3 1 1 1 1 X d.] X 1 1 1 1 1 1 1 1 1 1 1 1 3 , 3 3 1 X T g.X 1 1 1 1 1 1 1 1 1 1 1 1 1 1 1 1 1 - o ",
"].r.+.*.*.8.8.=.5.+.8.+.&.8.-.=.8.$.*.*.&.I.m...8.*.$.*.8.$.8.&.+.*.8.+.&.8.5.+.*.&.z.[...$.*.*.*.8.$.*.$.*.8.*.$.*.8.*.*.*.*.( ",
"p.'.'.OXOX`.`..X.X.XOX+X`..X.X.X'.'.OXOX'.(.`.'.'.'.OX'.`.OX`.OXOXOX'.OX`..X.X.X'.'.`.(.OX'.OX'.'.'.'.OXOXOX'.'.OX'.'.'.OXOX'.s."
};
