/* XPM */
static char *_1c2bdbe042741c5b545ee474136ecd2ySmyDqtTrQT5IhPe[] = {
/* columns rows colors chars-per-pixel */
"64 64 138 2 ",
"   c #1D2122",
".  c #1D242B",
"X  c #1E2734",
"o  c #1D2833",
"O  c #262724",
"+  c #292927",
"@  c #22272A",
"#  c #252A2D",
"$  c #2A2D2D",
"%  c #203824",
"&  c #2E302D",
"*  c #33332E",
"=  c #343B2D",
"-  c #252C33",
";  c #292E31",
":  c #242F3A",
">  c #263137",
",  c #2C3235",
"<  c #26313B",
"1  c #2C353B",
"2  c #2E383F",
"3  c #333534",
"4  c #363836",
"5  c #3B3B36",
"6  c #31373A",
"7  c #343A3C",
"8  c #3A3D3C",
"9  c #413F3B",
"0  c #32432D",
"q  c #3E413E",
"w  c #43433E",
"e  c #48463E",
"r  c #4C4B3D",
"t  c #504A3F",
"y  c #273541",
"u  c #2B3641",
"i  c #2D3943",
"p  c #2E3C4B",
"a  c #343C43",
"s  c #393E42",
"d  c #313E4A",
"f  c #364046",
"g  c #3C4244",
"h  c #35414B",
"j  c #3C454B",
"k  c #3E484E",
"l  c #354452",
"z  c #3A4652",
"x  c #3D4952",
"c  c #3F4E5B",
"v  c #3F505D",
"b  c #434543",
"n  c #484742",
"m  c #454946",
"M  c #4B4A45",
"N  c #424749",
"B  c #444A4B",
"V  c #4B4D4B",
"C  c #514D45",
"Z  c #514F49",
"A  c #4C5142",
"S  c #4E514D",
"D  c #53524D",
"F  c #5B564B",
"G  c #50594E",
"H  c #5C594F",
"J  c #434C52",
"K  c #494E51",
"L  c #424E59",
"P  c #475155",
"I  c #4C5152",
"U  c #44515B",
"Y  c #4B545A",
"T  c #4D595F",
"R  c #535553",
"E  c #585751",
"W  c #565954",
"Q  c #5B5B55",
"!  c #515659",
"~  c #545A5B",
"^  c #5C5D5A",
"/  c #615A4C",
"(  c #625E55",
")  c #685F51",
"_  c #605F58",
"`  c #5C6257",
"'  c #5E605C",
"]  c #636157",
"[  c #63635C",
"{  c #69665D",
"}  c #6B695E",
"|  c #706757",
" . c #70695F",
".. c #475460",
"X. c #4A5663",
"o. c #545D61",
"O. c #595E61",
"+. c #556065",
"@. c #5E6263",
"#. c #556068",
"$. c #5D6268",
"%. c #636562",
"&. c #686761",
"*. c #666964",
"=. c #6B6B63",
"-. c #646769",
";. c #666A6B",
":. c #6C6E69",
">. c #716E65",
",. c #706F68",
"<. c #6E716C",
"1. c #737166",
"2. c #73736C",
"3. c #79756B",
"4. c #76796D",
"5. c #7B796E",
"6. c #647079",
"7. c #757671",
"8. c #787771",
"9. c #767872",
"0. c #7C7B72",
"q. c #777B79",
"w. c #7B7E79",
"e. c #827E73",
"r. c #7E807A",
"t. c #828076",
"y. c #84847B",
"u. c #89877C",
"i. c #87887F",
"p. c #8B897E",
"a. c #908C7E",
"s. c #878883",
"d. c #8D8C82",
"f. c #938E82",
"g. c #8F9087",
"h. c #939187",
"j. c #929188",
"k. c #98948A",
/* pixels */
"# , a f f s 7 i.V # , , , S 2 1 u f i h r.{ , B f f 0 h j f ! =.^ w . : - - : : - 3.Z J O.~ N $.R 9 R # s b 5 { b i N k j s >.w ",
"4 $ > s 6 7 g 5.} , 6 . q V > f u h l x @.q q k g B m b V B S ^ ` M 6 8 1 8 g 2 Z &.C N ! ~ N N E Z _ Z w M >.3.Z > , a 6 N u.e.",
"s , 4 $ 7 i W u.t.7 q w A 2 f U k j 2 I ` f k g j S N R R R S R A r [ 2.R Q 5.>.Z R [ 5 D _ R _ 8.e.&.>.E V B b b 6 3 b _ &.Z 0.",
"] 6 b , - , :.a.e.F V <.G 2 j U $.G I =.;.K k B g k p ' %.Q g J ! S ] V s M E D 4 3 [ 2.&.E _ _ ( E &.R - > : 1 1 a s 6 >.K N p.",
"[ _ E F V ] >.H / 7 a k g Q [ W q.' Y ! r.<.1.<.W V Y >.:.&.V s b V C 3 g 8 9 9 b 7 *.=.5 5 7 & 5 M [ , 1 d a d f a i j 3.1.Q [ ",
"* $ n n =.1.n K V # B E S g ` g 2 j i V :.W s $.;.*.0.0.1.:.0.e.e.} Z 6 s g 5 w ^ &.:.V n 5 7 8 9 9 E b 6 2 1 < 1 2 u S >.n 7 6 ",
"3 , j 6 ^ } I 3.m g D V g Q &.k s J B R w.[ s Y ! g ' =.^ ! ~ ' ^ %.Q 5 8 M / = C d.:.M R e a q 5 = & 3 D 2.{ n Q Q [ 2.D w w 3 ",
"7 8 s a 2.2.^ } & $ , 5 D 4.S g j P V E W 2 s Z D Q ] S s f s i d s _ >.M E ( b 7 B ] Q w 3 , % 0 ` ! [ E [ =.E w.r.! n 7 b w n ",
"k R g r 1.W E W M M 5 ` ' :.S i d N E &.&.8 K b K %.F B 9 i < i x E _ [ K Q { %.! 9 ( -.O.V , F :.%.q.%.w 3 ; 4 3 [ y.Q - s 3 , ",
"N D ] R m k x j R ^ <.s.g R j h d J %.%._ e.0._ ~ E s J 8 - p d m n 7 * # d V ' N N C 9 K s a R N 6 K n 3 2 s s s 3 w.s.D e * O ",
"8 ^ 2 u J x L J x a g [ ;.9.k h d B -.>.W %.w.&._ V - , E B i a n $ 6 N 8 N m E Z 6 [ E 8 8 s Q %.Z %.Z # s b s j 3 :.9.Y ;.*.m ",
"m m : h k x L k J U h b Q <.%.S Q &.e.W b R =.^ [ 0.=.>.>.N V %.>.+ - Q 8 s m g s 8 I N > s m ~ -.:.=.E $ - 6 s 8 m ] ' S D Q V ",
"~ E - U k L x j L z s ^ S V n m n [ d.Z K _ _ =.=.=._ ~ %.I 8 ^ ( 8 @ u 7 , a N ( ;.I s - ; s K 6 J [ 0.{ 3 N N b ~ =.' V b a p ",
"j w.b J J x x x U s M N I W { S 3 R e.[ N s Q 0.E , x a N f.e.y.2.3.C 9 V _ [ Q =.0._ - a s n b Q ,.0.d.y.1.W :.=.F 8 a g m h h ",
"2 ' E d l j x x f %.^ ; s b W D V a W 0.%.R ,.n i a J s &.0.V s _ e.8._ ,.h.>.) ( { ) 3 V s I ( Q E E Q &.<.] 3.0.0.Q g x h z h ",
"1 Q g.e d x L I _ %.! * # f S ^ ! s b V ! 2.=.s K o.d N ( , - 2 i ,.=.s Q N 1 N ) F E 1 1 V =.{ , 1 7 s N @.1.~ S ' 1.g h h p l ",
"h &.r.{ 5 k 8 ] w.E 4 b N s R Q R s N N B Q N a Y J N ] 8 2 7 j 8 =.y.0.7 y l u w Q I j d [ E , 2 s j j f [ b p 6 8 *.W j l l v ",
"J S 6 =.1.<.=.[ 3 ^ E V %.R n _ K s 6 a >.d.&._ I ^ ( g , a a j 8 Q j.D i c z z 2 s R 6 a n 7 U o.Y L J R R m 8 f h g <.Y h p l ",
"8.E & ' :.^ %.[ m =.V ; n <.%.>.>.s N _ 3.Q s ' a.5.V 6 s 7 ; 6 2 b :.7 l U ..J s i j f w S s 2 ..6.o.L I E S d p f W 0.R d 2 g ",
"h.E j B 8 , I R 0.V i 1 m [ Q =._ R e.&.a , 1 < [ e.b 6 7 m 3 > N >.8.J p l U x , i f m [ [ A j 6 o.N ; S 2.2.^ S ;.=.B ' ' g 8.",
"=.g J k P Y B W Q s Y k L R ~ o.O.:.-.( ; y 3 s U ] 8 a s b , B >.u.p.] l z z p 1 m 9 B S q *.9.=.:.8.:.` [ 2.q.8.=.N s V S B 9.",
"V d N p x Y K %.7 O.~ x B s o.Y Y 2.2.E - p d X.n E 8 , a ; F Q b B =.0.Y z h o._ =.Q j f q B g B y.3.%.6 $ g ;.w K B g j a Y s.",
"m a a 2 i 7 W I g ~ N z L J o.X.K ^ 8.,.J N J I { =.3 , 6 Q =.4 P a 3 D [ [ D S s R 2.*.R g , 1 V ^ &.=.4 3 K N m $.N j J J N ^ ",
"_ V 7._ ,.=.E ; V E K N j L o.O.! 7.y.&.( y.,.n Q =., 8 [ 3.3 2 q 5 g 7 R 0.M , z R w.=.7 7 7 s W j x :.3 g @.S ' 7.K j N J m =.",
"8 7 K %.8.-.D 6 Z j a L J U P ,.e.>.R $ 6 &.8 u u Z _ >.0.5 - d f q q p a =.w f f h <.4.4 , q 8 W N I M W ~ ~ [ :.[ D R M S r.3.",
"1 s m M B s N K S E B J Y R _ 2.=.N 3 < 3 _ n , u - { e.g s g 3 - : u a g ] q P h y <.r.=.V g m =.` [ E 4.1.n 8 N S ` =.8.y.^ N ",
"9 s s s a d s a J %.>._ D >.,.V i a 9 s C e.8.8 < u , D Z a m s O o 7 = E G 2 j h < ` >.' { ` S I m 7 S } k g a 6 N M w [ S p 8 ",
"B s a 6 a s a , s Z _ r.[ D N # ; : 9 E R D ( >.7 7 6 - 2.u.g a q 5 w R ] 2 f 7 k ` 9.{ 7 N } Q q 7 > > ` q 2 7 b S I N F s K / ",
"a B ! R S O.R 9 N 9 D R N K S N &.=.E 3 @ , # Z e.{ e.3.>.,.0._ 5.=.} u.t.Q g [ r.} } G m A 1.I 7 q & i 4.` > 2 1 S F M V ] | >.",
", N S K N ~ 8.=.{ _ n S R O.^ S [ u.Z   6 , @ E _ E $.Z 7 s e.e.4 , b g R =.3.4.q > 4 > 7 , m B ` 2 < > S } 7 8 * 1 f q I *.^ Q ",
"s n $ 1 1 6 B J N N 8 $.' O.-.O.Z &.9 , 8 9 3 [ a s a i s N f.{   4 3 > 1 , q :.H # 2 2 , 7 3.^ 2 k R W w.t.1.{ ] n S D *.] n 8 ",
"b m - 1 i ; u a 1 2.D K $.^ O.O.j E ; a s E 9 :.j a s J N s &.8 6 e 2 8 i 8 8 0.S # ; , # M ` S m *.[ ` 5.3.` Q V g 2 f f 8 q b ",
"E b . : - - : - ; 8.D B O.~ N @.R s Z # g s 5 &.b 2 j k j s >.5 . , d g f s 7 i.M , > , , S 1 > 2 y y f 8.=.; j 7 i 7 f k f G @.",
"Q M 6 7 , s N 7 Z { C N ~ ~ g N Q Z _ D w C >.2.D > 1 s , m a.5.5 $ > s 6 7 g 5.} # , @ q V > h y h l x *.s f m k m M g V B I Q ",
"C r _ 7.! Q 5.>.Z R &.8 E Q F ^ 0.e.{ >.D V m b g 3 6 w _ =.V e.g , 7 $ 8 2 ~ u.t.7 q m S 2 q Y k h 2 G ~ f V f g S k Y R R S R ",
"Y D { B b m E Z 6 3 _ ,.&.R { ^ _ E { R : , - i 1 s s 7 ,.V j f.] 6 b & - < >.a.e.F S ;.S 2 h U @.Y G *.=.P k B j B f ` [ Q g U ",
"b V M 4 g 5 8 9 N 6 -.=.5 4 4 & 4 M { , < a p d j i i j 3.3.Q ` [ ` W F V ] 1.H H 8 a k g Q [ W r.` Y ! r.<.2.1.W m Y :.<.*.V s ",
"e.} D , s g 9 w _ &.>.C w q 8 8 9 9 E b 6 a , < u 1 1 V =.m 4 2 $ & M e } 1.b I M # B E S w ' g 2 k u V =.W f $.:.&.e.0.1.:.0.e.",
"] [ Q 9 5 n / * C d.=.V D e a q 0 = * 3 D 3.[ n Q Q %.2.F b n 3 3 , j 6 ' { S 1.m q S V g Q %.N f P B G r.[ a G ! g ^ =.^ ! W ^ ",
"h g ( =.V H ] g a m ^ ( w 3 , % 0 ^ ~ _ E [ =.E w.e.~ m 6 g q e 6 8 f 7 2.3.^  .& $ 2 5 D 5.V g f I V W E i f S D Q ' S s s s i ",
"j W [ _ K ~ [ %.W 8 ( =.O.V * R :.-.w.%.w 3 $ 4 3 %.y.Q - f * , x R q r 1.W ` E A M q ` ' :.I i a J W &.{ 8 K b I ' F B g 6 < i ",
"N n 4 3 - j m %.B m C 8 K f a ! g , I n 3 < s g 8 3 w.y.D w & # B D ] ! m 2 f f I Q 1.s.g R j h p J %.[ [ e.8._ ! ~ g J 8 ; i l ",
"t # 3 N 8 j m E V 7 %.E 8 s a Q &.S &.Z # s j g k 3 :.9.R *.:.m 8 ' s p f f h h u 1 N [ *.9.k h a J &.=.W _ w.&.] M ; , Q B i p ",
"} + ; Q 5 s N b s 8 Z N ; s n ~ -.:.:.D # - 6 s 8 m [ ' I D Q N V B < u f f h l h h h N Q 2.@.V Q %.s.E g W =.%.[ 0.=.>.>.N V _ ",
"E s + 6 7 1 7 N _ ;.I 9 - ; g V 6 J _ 0.{ 4 n N g Q :.' V b s y ! Q o f j h f z h h j ^ V Z n n n [ s.V K Q _ =.=.;._ ~ _ ! 8 Q ",
">.8.C g V _ _ Q &.8._ - a f m b ( ,.0.d.y.,.R ,.=.F 8 7 j j h l h r.b z h h l x p p Z N I Q { K 6 E t.{ B s Q 0.E 6 N i N f.e.y.",
"_ 0.8.Q >.h.>.( ( { ( 3 V s K _ E E Q Q =.,._ 3.t.0.Q s k h z h 2 ' F f j h f l 7 [ ' - s w W R V B ~ 7._ ~ 2.N i 8 J j %.0.V s ",
"a ,.,.s Q N u m ) / E 1 6 V =.&., 1 i s N %.,.~ V ' <.b h h p l 2 Q g.e 7 f l k ` %.R * # h S Q ~ k x L Q ,.=.s K ! d N ] , - i ",
"s =.e.0.7 y d y b H K N a [ E , 2 g j j s [ b i 8 8 @.W h l l c h =.w.{ 4 d 4 { w.Q 3 n m s R Q R J k J J E V a P J N _ s 6 7 s ",
"7 ( k.Z p v z l i s ! i a n a P ~ X.L J W I m 8 f h g <.Y h p d V V 4 :.>.:.>.[ 3 ^ E V %.Y m ] 7.P 7 7 =.d.&.' K _ ( b 1 a a N ",
", b :.7 l ....J s i j s b Z 7 u U 6.#.x I E S d i g ~ w.~ a 2 N 8.W $ ^ :.^ %.%.n =.B ; n <.[ >.3.s g [ 3.Q a ' f.e.M 6 s 7 ; 6 ",
"V >.5.B p l ..x 1 i s n %.[ V b 7 o.b , S 2.2.^ I ;.=.m _ _ s 0.k.W N B 8 3 K ! 0.K i 1 m [ ^ =.^ R e.=.8 , u 1 ' e.9 i 7 n , 1 ",
"=.y.d.' h z z p 1 b w B V w -.7.&.<.4.:.^ %.<.q.8.=.m f V I j w.:.g K k P ! N E Q s Y k J I ~ ~ ^ :.&.Q ; u 6 s Y ] 8 7 s b ; B ",
"N m } 5.Y z j ~ ] =.` h a s V g V r.2.*.7 - g ;.b B B f k 2 R s.B d j d z Y K %.7 O.! x B j o.Y U 2.7.W X d d X.b E 8 1 7 1 E Q ",
"J s 3 D [ [ S S g R 1.{ W g , 1 V ' &.=.3 3 J V B $.B j B J j %.V a 7 i i 8 W Y g ~ m x L B o.o.I Q 3.,.N N B R { =.3 > 6 Q >.3 ",
"8 8 g 7 W 0.V , h Y r.=.7 7 6 s F j x :.3 q @.S [ <.S j k J m 1._ V 3.^ ,.&.E ; V E K N x L o.~ ~ 8.y.%.%.y.,.b Q =.3 7 [ 3.3 6 ",
"s f q a f =.q h f h 1.4.6 , q q Q m I B ` R ~ %.>._ ! R m I e.,.5 6 I &.0.%.R 6 Z N d L J L Y >.0.,.W # 4 { 8 u 1 Z ( ,.e.4 - p ",
"- < y s g ] g J h y <.r.=.V g k =.Q [ W 4.1.n 0 N V _ :.0.e.^ N ; 6 B n b a b K K E m J U Y _ 2.>.m 3 , 6 ] n , 1 > [ e.b a s 3 ",
"O o 6 3 R G 7 j x < ' 1.' { ` V I N q A { g f f 4 N N 9 _ R p s 5 3 s a a z s a J { >.$.D >.,.V 6 a s s V e.3.8 < u ; R Z 7 B s ",
"q 5 n W ] 7 s 7 k W 0.{ 5 N { Q q 6 < < ` q 2 f b D R b F s V ) K b 7 1 a s i 1 a Z ( e._ E N # - - s E E Z _ >.7 7 4 # 7.p.s a ",
"4.1.{ i.0.Q g ] r.=.=.S N A 1.G 7 q & p 2.` > 2 , V R B V _ | =.s N W ! K O.D 9 N 9 E R n K K n =.=.R 3 # , # D 5.=.5.5.,.2.0.] ",
"4 & b g G =.4.5.q ; 6 & 7 , m x ` 3 < > S =.4 8 3 , g 9 I *._ Q 1 N K K b ~ e.>.&._ n S ! O.~ K _ d.Z   , , @ Q ' R [ V 4 s p.5.",
"@ 4 * < 2 , q 1.H . 2 2 , 7 4.Q 6 k E E w.t.2.{ ] n S W %.( n 8 s e $ 1 1 6 N d j n 8 $.' O.-.O.Z _ 9 , 8 n 3 [ f g a a s N p.{ ",
"7 q 2 q 2 2 q 5.G # , , # m ' D B =.;.` 5.1.] Q V g 2 s s s 9 B N n - < a 1 u s 1 2.Z B $.^ O.O.N ( ; a 8 W q =.g d g j j g =.w "
};
