/* XPM */
static char *_92394d9e1e943ffcf2949a0bb216bf1e6tcIfjVtdItKiF8[] = {
/* columns rows colors chars-per-pixel */
"64 64 194 2 ",
"   c #040402",
".  c #080705",
"X  c #070906",
"o  c #0B0B06",
"O  c #0C0D0A",
"+  c #140E02",
"@  c #110E08",
"#  c #0E120C",
"$  c #161004",
"%  c #1C1405",
"&  c #13130D",
"*  c #1A160C",
"=  c #16180D",
"-  c #1B190F",
";  c #141612",
":  c #191713",
">  c #161913",
",  c #1B1C15",
"<  c #1C1E19",
"1  c #241A07",
"2  c #241B0A",
"3  c #2F1711",
"4  c #211E14",
"5  c #2C1C11",
"6  c #221E19",
"7  c #311B14",
"8  c #15220A",
"9  c #1C2017",
"0  c #1E221A",
"q  c #27200F",
"w  c #2E220D",
"e  c #30230F",
"r  c #232116",
"t  c #2B2414",
"y  c #202B15",
"u  c #2D2816",
"i  c #23241C",
"p  c #29261B",
"a  c #24281E",
"s  c #2B2A1E",
"d  c #352914",
"f  c #3C2D14",
"g  c #36231C",
"h  c #332C1B",
"j  c #3A2F1B",
"k  c #36311F",
"l  c #3C311C",
"z  c #242620",
"x  c #282621",
"c  c #262A22",
"v  c #2B2C23",
"b  c #2C2E28",
"n  c #312E22",
"m  c #332F29",
"M  c #2D3026",
"N  c #2E3229",
"B  c #333225",
"V  c #3B3525",
"C  c #3D3927",
"Z  c #33342B",
"A  c #39362B",
"S  c #35382E",
"D  c #3B3A2D",
"F  c #343631",
"G  c #353A32",
"H  c #3B3D33",
"J  c #3C3F39",
"K  c #43351D",
"L  c #413620",
"P  c #433924",
"I  c #4B3B23",
"U  c #413C2C",
"Y  c #4C3D2A",
"T  c #413F32",
"R  c #4C3E32",
"E  c #403F38",
"W  c #3D4136",
"Q  c #3D433A",
"!  c #3E483E",
"~  c #44412E",
"^  c #48422D",
"/  c #54442B",
"(  c #5A472F",
")  c #56482B",
"_  c #594B2E",
"`  c #434235",
"'  c #4A4534",
"]  c #4E4937",
"[  c #43453A",
"{  c #494639",
"}  c #45493D",
"|  c #4B4B3D",
" . c #534735",
".. c #594731",
"X. c #544A36",
"o. c #5A4D35",
"O. c #524538",
"+. c #524D3C",
"@. c #4F503F",
"#. c #52513D",
"$. c #5E5138",
"%. c #624E37",
"&. c #64543B",
"*. c #3F4941",
"=. c #434641",
"-. c #464B41",
";. c #474C41",
":. c #454B42",
">. c #484B40",
",. c #484D41",
"<. c #484D43",
"1. c #494E42",
"2. c #4A4E42",
"3. c #4F4F41",
"4. c #494F44",
"5. c #4A4D42",
"6. c #4B4C48",
"7. c #514F41",
"8. c #475047",
"9. c #4B5044",
"0. c #4C5044",
"q. c #4C5146",
"w. c #4F5446",
"e. c #4C5145",
"r. c #4F5548",
"t. c #4D5449",
"y. c #535141",
"u. c #535342",
"i. c #505141",
"p. c #505144",
"a. c #575645",
"s. c #535243",
"d. c #585746",
"f. c #595544",
"g. c #5A5847",
"h. c #5D5A46",
"j. c #5C5947",
"k. c #5F5C45",
"l. c #5B5847",
"z. c #52564A",
"x. c #525749",
"c. c #54574B",
"v. c #545549",
"b. c #51574D",
"n. c #52564A",
"m. c #595748",
"M. c #565948",
"N. c #55594C",
"B. c #565A4E",
"V. c #54594D",
"C. c #5A5A4A",
"Z. c #5B5A49",
"A. c #5D5B4A",
"S. c #5F5D4B",
"D. c #5E5D49",
"F. c #5B5B4B",
"G. c #565B51",
"H. c #555C52",
"J. c #5A5F53",
"K. c #5A5E52",
"L. c #605D4B",
"P. c #615F4E",
"I. c #615E4D",
"U. c #576154",
"Y. c #5C6055",
"T. c #5C6154",
"R. c #5D6459",
"E. c #63614F",
"W. c #656451",
"Q. c #636453",
"!. c #6A6652",
"~. c #696853",
"^. c #6B6956",
"/. c #61665A",
"(. c #646A5C",
"). c #6B6D5C",
"_. c #706B57",
"`. c #706D5A",
"'. c #6E715E",
"]. c #72725C",
"[. c #79735E",
"{. c #656C61",
"}. c #686E62",
"|. c #677165",
" X c #6C7263",
".X c #6C7469",
"XX c #737462",
"oX c #787762",
"OX c #7D7A64",
"+X c #707769",
"@X c #737B6D",
"#X c #817D66",
"$X c #7B806E",
"%X c #7D8374",
/* pixels */
"A U W A A S D G W } 0.h.D v s i A ` [ { A D a.D.{ C k V ~ +.{ | u.k.~.W.d.u.u.{ B s v r , , a , O # > < 0 > > o = : o     X , B ",
"0.M.V.w.9.-.[ -.2.q.9.| [ 2.2.>.2.>.[ >.T H | { Z B k s A ' ` D.A h #.k.^ ' ] ~ U ^ P ~ q.9.[ H N v c N S N b < ; : > = 0 v N x ",
"s c a a c c v M N N c z i : & < N H -.z.v.v.V.K.t.G.T.b.V.v.} B i > K / _ ) o._ / I K ` C.z.w.2.2.} W S M b y.{ H H A b r , : O ",
"b B N N G } ;.[ 2.2.4.Q Z i , < Z b S Q Q Q Q Q ! Q S : & & & , s & $ h C o.&.&.&.$.o.' L.D.g.g.D.E.y.D A ` g.m.g.a.y.0.[ U H G ",
"& & & > i z 0 0 i i , # & B D b i & O ; , i a M z , # & s D H { C s p v D ` ] D v B Z D ' ` ' U C ` T U D D n n v B v M B N S v ",
";.} } 2.z.q.8.;.! Q G B i Z B v N i z v Z H S i 0 i v D ] < > v S D W { ` H A A A D A b a r i i p i i , 6 i x x D U H H H H H Q ",
"r.r.b.z.2.W W W Q [ Q D , & # O o o & < i 0 > , i M [ E.!.u.W } r.H.U./.T.B.9.s.L.T.Q.F.` Z [ q.F.W.F.S v Z n m x ` b.t.t.4.} Q ",
"s v M N S D H D v 0 i D 9 o     . @ : b } F.P.v D h.).OX#XoX).M.H N N S M i a M ` t.R.R.b.9.t.R.T./.R.| ` D T T H 7.p.` [ | | A ",
"] W N Z S N v M a c v M D ' C W ' ] u.^.].W.0.D M.@.a.#.D.D.Q.E.| A i r s A B s } } } W N 0 > > < , r W V.G.t.8.q.t.r.;.-.;.v.f.",
"@.W c M c 0 9 9 > , 9 9 Z W A C B a a i i > & D D.C W W D Z B Z D W W W #.` > ' h.[ ! } [ H z z 0 0 z A } } [ [ 2.q.;.9.9.;.7.R ",
"` ` v c y a , & i s M Z ` W 0 = o X   X     O A #.~ C W C C Z Z D W W ~ F.h.W F.E.S v b B S ` { G B c H | p.S.~.~.^.Q.U.F.V.F.T ",
"W y X X X O a S [ R.'.(.).(./.x.9.[ C r r a p t t q u k l ' Q.'.'.).x.[ 9.x.B.F.T.T.Q.M.M.x.V.H.b.b.r.r.z.r.b.t.b.b.t.t.H.H.b.J ",
"V i & # o X i ` 9.P.U.K.(.). X(.T.T.#.p * & * * q q 2 q q ' W.@.w.@.} @.@.W ` x.D.F.C.y.[ W S M z z v z 0 < > , < > < < , < ; 0 ",
"W ` } } W W W A S D W W W W W W | 0.k.{ B B v H { | | D W u.k.{ W l l ^ #.] #.D.u.E.W.#.@.@.W s n v 0 < @ o o .   o o o X ; & 9 ",
"S G H W Q ! Q W S W h.@.9.} } } 8.9.9.8.;.9.w.w.b.x.r.` A { 9.@.#.#.' ~ W C ~ #.C ~ #.P C V r D +.s i 0 r u K d w w e $     - V ",
"0 M H W } ` } ` A ` #.l ~ } 8.8.8.9.9.q.q.q.8.} ;.} Q { W A B A C B B M s p r 9 < & o o o o i C C B s a U n l j d j e * @ * s V ",
"N S W Q } } } ! } } C f K ] x.b.H.t.9.9.b.H.H.b.V.x.r.| | H 2.| Z G D [ [ ` S M a a & . o . .       & A A.7.7.s.T V r < i v | H ",
"A Z v a c M v c v v C h d k S Z Q Q W G G G G G S S N { { A ` b a M v M v v B b v ~ ' B r & $ > : > Z | 5.>.5.H v 6 ; i v r G -.",
"9.r.x.9.[ W } q.q.0.p.W D W W } M.v.D s i v W D Z v G F. X X).` M A D D [ } [ ` ' ` { | k.#.E A i < : ; < < > < b Z A r ; , v G ",
"Q ! 8.b.p.>.r.K.H.9.S c Z ! 9.9.;.W A { D Z Z D H D ;.z.t.q.2.A y a v M M Z B M v M v D ^.[.^.).(.V.8.9.J.Q.V.A.m.V.K.q.Q -.[ [ ",
", v S ` | s , < i b p , & , & o     r y.] D B s s n v B B h V ' ' ` s i B D ` T s 0 A { !._.' ` }..X{./.{.R.R.W.G.J.R.R.J.H.H.H.",
"D Z N N M v 9 ; & 6 A u.D.#.~ h t B D X.o.o.$.X.d.h. .' ' ^ ^ ^ ^  .v N S H Q G z & O # : v D A b [ G.G.8.=.Q L.F.[ Q J J Z z b ",
"D D v , # O X O : v +.a.W B B n h A B n B V U ^ h.V n s h s n B V { i > s G v.p.J B 9 @ . & f.!.#.[ { ` [ 3.K. X}./.R.H.J.t.Q b ",
"[ [ } G a , i N [ n 4 6 p h g 6 t p h B n B D H [ A v S A S G H ` ` r & > i m i H S.L.D p B T G A ` I.7.} z.T.J.R.R.J.H.H.t.*.N ",
"i 0 F G F G S G } P 3 3 7 7 7 3 3 7 7 O.{ v b S S Z S H B z i i i ` { } { { S } Q.R.F.g.E.A.3.W =.v.Q.b.<.7.5.>.| { } [ ` [ [ { ",
"D B F -.3.[ H ` { D p x n D ' U U D V m v 0 r z Z N 2.-.z 0 v N d.L.D A W } 9.2.;.r.| a.| [ [ 6.H.{.{.{.|.{.R.b.t.+.2.2.2.p.S.T.",
"D [ 7.3.J b z B G } 6.>.9.z.z.K.v.[ m.7.& & b M H ` b o   > 6 x d.T.g.0.} H B v i < b { Z N [ b.J.{.{..X@X@X@X|.J.[ Q G H -.r.8.",
"< b G 6.b > > ; r B N z 0 v F H z ; D H :     . X             & | G.V.V.B.b.b.9.W Z H ` B Q 8./.{.b.b.H./.{.G.G.6.B v M c 9 M N ",
"[ E S B S N , & p i > < 9 > < O o n D B v s x 6 & & & > 4 i x U f.+.U T { | | ] [ | | 3.E G Z G b x b x z 0 < < v H ` [ Q H H D ",
"G ` 5.q.5.4.[ Q =.H S A G i & > p B A H l.L.A.v.3.| 2.| v.+.] X.X.X. .X.$.o.&.&.] q.K.Q.v.=.H.J.G.G.c.b.6.b.Q H W W Q [ W F G H ",
"W H N i B T | F.a.3.A.L.W.E.g.y.p.v.g.a.L.` =.H.G.G.b.b.n.| H >.{ 7.v.7.+.+.s.| i H G F G =.4.t.6.J J [ t.J.H G Q H H H H H D D ",
"J S c b v.y.H ' 3.M.v.+.s.f.a.u.7.d.W.W.W.+.s r i x z b ` m.T Z v < < r < i i < s v b z r v , : : < < < i v H [ y.S.A.v.| S D W ",
"i v D s.D.` i < i v v B B v v D T E [ ` E Z ' ` E { >.>.6.v.6.>.J D J b < ; @ 0 [ >.-.2.q.c.c.v.b.n.[ n < ; m F F F F J F =.E U ",
"< , c w.| Z s , O o X       @ o @ @ o o @ p 7.+.[ } +.{ D J D J [ l.m.K.v.E J [ >.2.6.4.5.5.=.[ J J H A x x b x m J J F F E x : ",
"X ; N b.2.H G H H D S D A B v p r : * 4 h A T T n x '  .7.+.7.l.l.L.L.!.E.~.F.7.y.z.K.H.c.v.>.} | [ [ v.b F =.6.6.=.F b x m m x ",
"0 Z G F F S G H H W Q H H ` [ n , , , < r t - : 4 : : p n h j f d V d j X.c.p.m.v.>.-.*.J [ J J H H [ L.J 0 : < : : : ; : x J =.",
"Q } 9.9.8.b.b.x.q.| | q.5.3.>.[ D b i b c i c v p ; o i Y K g e d f f e H >.4.5.} W H F G F Q 6.r.b./.}.J 0 c & o   # 0 F H.{.{.",
"t.R.|.|.|.{.{.R.F ; i G Q -.N b 2.b.} 2.-.-.;.! N x D { Y Y / ( Y I K d U H G Z S G Q -.-.4.8.8.4.6.Q z < i v A ~ A < N 8.H.J.R.",
"> , 9 ; > > ; # X ; > O o ; i A i r S W S Z b z p G C.l.P R &.&.&.%...I ' [ [ [ W W H H N b x 0 9 0 0 v F | ^.).^.W.z.Z 0 ; > < ",
"# X X # ; ; O # , F J v 0 p C ` D D ` D D C C D } +.{ +.U V L Y O...' U | -.[ ` [ Q Q W N Z p V h u G 5.z.T. X@X%X%X%X%X@XQ b b ",
"# , 0 z N N z c G Q J Z G H B n v s p h B T { { 5.7.{ 7.v < : : 4 : : : H H F N z c N G N G [ ` ] s.@.! ! [ H t.(.{.{.{.(.Q i r ",
"0 z b N Q :.Q Q J J Q 2.n.3.[ J G H F H | v.V.V.J.R.P.Q.Q.Q.K.v.7.O.' ` p.A.C.a.p.y.} Z D y.F.[ M z i 0 : , ; # < 0 0 < , i B G ",
"> < > 0 c N N c < ; 0 z ; < z z i < # < [ H.H.H.J.R.R.R./././././.R.J.H.J.R./.Q.W.XX$X.X(.b.J N N z 0 0 < ; #           X z M b ",
"> 0 c < > z c 0 > ; O     O     o : & r J [ =.4.8.6.8.6.6.=.=.*.6.6.-.6.=.*.6.>.s.S W 9.V.R.R.T.H.8.S N Z N M a < , : ; ; # # O ",
", : < s z i v v ; # O X .       . o @ p | 5.| H S v z < < < , < i 0 z v v b B [ | F N F F N 6./.R.;.W V.R.U.z.q.! Q H F z 0 0 z ",
"$ + + + $ : 9 v O X X O .   . o * 4 i i N H [ <.G.5.H Z J Q B z ; ; , x v b b b [ } | [ Q N m Z N G E [ Q G G F F N M c c c M N ",
"+ @ & r i Z G G ; X   X O & i a , : 6 s x , < z b Z E [ A F ` >.[ V m Z A H n v ` 7.E x p v A } J G p.F.-.G N G Q Q Q :.-.N c 0 ",
"S W } } M M c b N c 0 b N H W W S H Q [ H Z >.J Z A 5.>.[ 3.N.a.n.>.[ >.6.{ E m n x b A F | H A b.U.b.:.Q Q *.! Q Q Q *.:.*.Q *.",
"i v F M i c a 0 0 a a c M M M v b b v v v [ t.H Z B N F Q Q =.{ F U D D n v H 0 - i m A S S A W Q Q H [ [ H v M Z N F F Q ;.9.q.",
"v c , # r s A k B ` 0.} Q H G W p.p.>.[ | 7.[ -.4.[ H H H Z E E 6 6 6 6 , 6 W S H 2.c.c.} H r.t.-.[ [ } ` Z M W z.r.6.6.t.8.:.;.",
"F W * $ % % % % % * W ;.:.*.-.Q ! ! Q =.<.6.-.6.:.=.[ Q J [ [ v @ O O   . : N b.R.{..X{.H.H.G 9 ; # # > 0 0 a H :.8.8.8.:.*.G G ",
"G D % 1 1 1 1 1 % $ A W G G J Q [ ! Q J H G G G G N v z z r v 9 ; 6 z x z 6 M N z z < < z < = , < < ; # < M b 9 < > # ; # # X # ",
"M G M s s u t r 2 > D Z F S S S H W { 3.=.[ [ -.4.6.=.` G G W [ =.=.>.{ W N N c , < i i 9 9 0 S G < < , 9 s M s = , = 9 z i & o ",
"0 M N N M M S G G S G W W W Q ` [ [ [ =.F G *.6.-.Q Q | N i c a x : < < > # # # < b c > # > 9 Q z.M v v M s M s y y M a v i B s ",
"0 0 9 9 9 0 9 0 v M i a a c v M S W c O O > z Z F J Q H 9 > = > 9 9 , & # # 0 0 N c 0 = # 9 0 W K.>.3.>.| [ G N A N b N v z H A ",
"9 0 9 0 c A M v i 0 b a 9 0 i v v Z B < 0 z z v c c S H i 0 9 9 > & : 0 y 9 c c c N 0 > ; = > S Q.b.t.t.r.9.-.-.:.Q Q Q Q N N F ",
"8 # # > v | v y v v M b A S S D Z [ m.| v.+.| | 2.p.a.{ W C A M s a v v c a z c v N 0 9 > ; < T t.:.8.8.8.8.-.*.*.! Q J F N z 0 ",
"y y c v v B 6 & & = r v v s < i A S G [ W.E.y.Q 8.x.B.K.Q.R.D.B.C.W.T.S.3.H S ! 3.v.x.s.B Z F A m b F G F N N b N G F Z N z 0 > ",
"M i 9 c D a & o - i s h A ` 0.y.s Z s.^.#X#X`.T.9.W W W ! S a c N { x.R./.B.b.U./.{.{.{.} A B Z Z m ` 5.Q ` 3.3.Q J T H G D W S ",
"M a c M M D C M V ` ' #.~.oX].S.D A.C.D.E.W.^.).Q.{ s 9 9 a B B v { ;.9.} N 0 0 z c c v { M.G.r.q.t.b.z.-.-.4.M.7.' H N Z S Z N ",
"i > 9 i y D { ' ' W A Z S M 0 > ` h.S H W S W W H ` W D D | C < ` a.;.;.Q Q G i < , > z D ;.;.! } -.2.;.t.8.8.y. .+.D M N N 0 0 ",
"& , < y a W M , O             o D h.U U W C k v s Z W ` } E.s.Z d.A.N v v N A D G B v i D | | M.T.W.W.K.M.x.p.C.C W { b c y 0 , ",
"B [ K.Q.R.(.R.F.| Q D M r 9 r r d t u u f j ' P.).T.K.{ W 9.M.B.K.Q.U.F.s.p.w.B.K.x.t.;.r.b.b.H.U.H.T.H.b.U.U.T.G A i & # O ; 0 ",
"| B. X.X).+X+X+X'.(.P.+.i - , 4 8 u w q d d ] P.Q.'.'.P.M.w.} 2.M.C.F.M.@.} } Q Q G W Q G N N v v N z z z z z 0 i A >         0 "
};
