/* XPM */
static char *_8fa1fb5bdb14a7c99ba9aac8f214edeVBtlRlNFDHRekFG6[] = {
/* columns rows colors chars-per-pixel */
"64 64 55 1 ",
"  c #544F4B",
". c #57534F",
"X c #58554F",
"o c #565350",
"O c #5A5651",
"+ c #5E5A54",
"@ c #615D56",
"# c #625E59",
"$ c #66625C",
"% c #6A655E",
"& c #6B6761",
"* c #6E6A64",
"= c #726D66",
"- c #746E68",
"; c #76716A",
": c #7B756D",
"> c #7E786F",
", c #7D7770",
"< c #7E7971",
"1 c #80776F",
"2 c #81796F",
"3 c #837C73",
"4 c #887F76",
"5 c #857F78",
"6 c #868077",
"7 c #8A8176",
"8 c #878179",
"9 c #8C847A",
"0 c #8F887E",
"q c #908477",
"w c #91867B",
"e c #948A7E",
"r c #988C7F",
"t c #8C8680",
"y c #8E8981",
"u c #958D81",
"i c #998E82",
"p c #958F88",
"a c #969086",
"s c #9C9285",
"d c #969189",
"f c #9D9589",
"g c #9F988E",
"h c #9E9990",
"j c #A09586",
"k c #A19689",
"l c #A39A8C",
"z c #A99D8E",
"x c #A59D91",
"c c #AA9F91",
"v c #ACA293",
"b c #ACA499",
"n c #B2A697",
"m c #B4A798",
"M c #B3A899",
/* pixels */
"ffkddgx<<xsdfdggfa0aayh>;dpdgghga096eeg==g0aaaaahhgaffb*6fserfsf",
"lllksln7ylfjllzblsreral68aaaagggsarerff62grfrfaraaf0fkMa0asflzff",
"kknkkzv5ylsssfflfsrreef<6arareareeeerrg33fae0rrr0e0efrg80fsrllfs",
"sjckffz80lflssfffsssear3<e0eaeerere00er>3xaeeeraeeeafaa30lsssiuu",
"jsidksk80zsfsrfkjjssarf<6fraffkseree00g33ksrerrsreerfer<ukjueeei",
"iiiiiis36srraskfsfssraz39zfffjrreeqqeer>3fkrrrfsrreee0r;wkiieqei",
"uuuuiif80lsfflzzfjssssl80vlllllfffreqer66lffsassgrkrrrl:9kjssueu",
"7777yuu=;a69aaar00070qr**f0609063>63660%$66366673696936 &577e743",
"5yw79ee770aarag;$93236863tu7u47+=e66636e0669990%%44114444544u4u1",
"uiiissuasskllfv00zflljskcllkkif00rrreerrkrskssk74iruijljiijjlskl",
"uuireiuerrflfaf69zjirsriikjiuwi79reree900errrwr>4iwer44rtiiiiisi",
"uiieeueesasasrf39jiuruserjjuuui3>eeeree090rsrrr:4irerrr4ussiiiip",
"uiuuee0usfaasus<3siurireiiiiiii16eeerrreeweeq7w:4rreiirrriiruiii",
"uuiuweuussweees>3feqweeiuijriue16r0ererre9ww0wr;1rrw4rr44r4444ii",
"ujsjarrrraeeeaf68luueeesiijsjisw9rrrarrrrrrrrfl64sjkljiiiiijssji",
"1t449963667600a*:guwe970weeeywu&%69600099666q9e@%w4q44111113t94=",
"4tt4tty&#43,35y75up0u7w+%u45553:;>>666e$$066666>:211314#&4114453",
"llsiius43uyiffpghlljsrk31kiiuiiirrrrrrr>>zjjrfklssjriei4wljisssf",
"fuyuuui1:7wusiuudsiirwi31jiruere00e9eee;>ffrrrsreeerrei14siuuuii",
"uwwuiii1,w0uiuuuifsirrr;:srruereeeqq00r;2rrlrfrrreqerrj24sissiii",
"yuussuu1=7wwwwwwrjjisuu1;rwqqueqq09qqer:>rrkeerrrrwwrrj11iiijsiw",
"4tiisuu;=uu0uewwisiikjs1:jeewqee0qe00er:=rrrerrrrrrqqrs:1iiiuuiu",
"uuuiiuu1,eeiuueuikljrjl94jsuwurkrreeerr::rrlrrrrrrreeqj:1uiiiiii",
"1513314#%3333,>34ee7747$O1;-:>33333>626X+>>322721244414.#4511131",
"&5:16<>:;;>63>3.@t5331>1-=-:337$=066766622>2627$=r444441144444y1",
"uuufffarerrarwi>;jusijiiiiiiiijw0rq0q0erawweeee;444rr44iu4ruiusi",
"4wtyurerre0reeu>;iuuwerweewwrrs39ee0q0erueeq7qe;144rr4r44urruiu4",
"ywwuuuuuaeee9ws61seuewrreuqewwi36r060eeersq777e;2rrrr44r444r4ee4",
"ww0euusrrrrrr0r>,urrerirweeerwr36rq0qrreeiw444i;4rqrrr4rrri4urr4",
"uueuussaaerre0r21ierrrrrwerrrqe39reeerr0esrwe4e;14qq4ir4rr4r4ij4",
"uiffflfsssrarakw4jisisissrjswei49xfrerrrissuwrj14irr4rri4ru44usr",
"5piiass00007060%+31131321442443+&922666>3444114#=42441414444ru41",
"arrgrrr*%r066066>266366%%09900633699000%*9><636:>26774q$1ew4ue44",
"rgggxrg0>vrrrrrrrvrrrrr0qrrlrzrljrrrrrf6ererrsseweewwei7wsiesiis",
"rggrgrg0>r0rrrr0rrrrrer66rlrrrrlrerrr0s66weerssewww7qqr27eqeiiij",
"ggxrgrr66r0rrrrrrrrrrer6rrrrgrrgkrerrrf9>weearrewqwqqqq24uwqriei",
"jgjjrxv6<g0rrrrrvrvrrrl60rrzgrrrrreearf6>wwersserrjwrqq:4ii44i4j",
"rgsrrxx6;r0rrrrrrvrrrrr09rrrrrrrrreee0r3>w9esarrrrrwqwq:4iiui4uj",
"jlgjxrv63xxrrrrgvrvrrrz90vlrrrrrgkrffrg96reeraaajsrsrjr24jssi44j",
"6060000*@636>6066900099+*r093>3>;:>>::6+@6>;:><>2>22727+&4444434",
">6600000666666r=>rrr0errrrr009r%$63>;;>>;>:;>60#%w43411111144wu=",
"0ajgjgzzvvvxvrv0rvrzrrrxrzzlrrr>;reeeke0eeeerrs31iwsssisisiuuwiu",
"arsrajgarrxrrgz0rvrrrrzrlrllrrz>=0q0qrr6we090ea>1iwiirrwwwww44tt",
"arsgjjaarxrvgrr00lrrrzrzzrrrzrl>;r000ereerew9qs:1jreeriiiiuwiuwt",
"aaszjeeexrxrxrg6evrrrrxrrzrrggg>:rrra0eqqweqq7r:1ssrwuiiiiieuii4",
"eajsajasrrrxxrv00Mrzrzrrrrrlrag;:lrfr0e977q7q6e:1puruwuiwiiw4siw",
"gagaaggzxgxxxvMgrMrrrrvvrvzlggg>>kfkfsr00qeww0s>4kjjipjijkiwiiju",
">6>>66666660660*;r00r0939r06766@X===>6<:=2:>>:6 O11133513434t44&",
"0000a0a*$0000600060e0er@%r0606>>**;:<>7O@3:>>:>>115557y#=94yt555",
"gsggggva0xgvvxxgzvlrrgz92zglxxrrrfare0s6;q9rearajkkisskttuuiiiji",
"arsgrgg00ggggrrgzzrrrrr93grrrar00rre0es:;9790rrriruyuwi37uuwuiii",
"rarraag00xxxzlggrzgrrgz9>grrrrrgarrresf>:q70erareuyiuuf57uuuuupi",
"aaaaaax00vggglrgrlrzrgk>>geraggrareruwa:;q70earaeeuufik48iiiuuuu",
"ragrgrg0yxggrlgrgglrkrr33r00rrrgsra0eee;;97qerrrrrusiuf38fipeeeu",
"ggggxgxa0xxvvxgzvzzrrrr06zrragglllffsis;3duuafslkkskfix78jkkjkkf",
"666>666$*a0aar0aer000e0%#6:;><63>677863X@<=;><>>343554t@&u858533",
"6y88y6666<00yaa*;00900q333>3966%+36666366626726+#41134t49pu8u0y-",
"aggxxgxgggxgxgvaalfkjggljfrgkae60aafaarafsskarf94ssjffisklkkggxu",
"aarbgrrgargggar0dgaasrarkrere00>6reraaae0esrees64iwiiuuupifkfiiu",
"aarxggrgrxxgggg60rrersfggre0rer66eefssrreraeees34iuieuuusisfiiip",
"aag0gg0rrrggrgg69a0afrkfgfrfgra<<erfssreueeeuis<3uuiiiusjiiuuufp",
"ahggrgrraaaaggg68gfrrrffsfrgxfr66eaasfafsuaasus<3uuiuusflfuuuufi",
"hggggxggggggggg69gfgagggggxgvfx89eearffffsussfu83uiissskljskiujf",
"ghxrghghxghggah><afhxaddgggghhx<3eeearaaaauudsu=3uuidffpfffkpplu"
};
