/* XPM */
static char *_4b7e95d7ab64e1ebb67d71dc5b07d92GuIvoo1i3DGxPi3k[] = {
/* columns rows colors chars-per-pixel */
"64 64 185 2 ",
"   c #050302",
".  c #0B0604",
"X  c #0D0906",
"o  c #0E0B09",
"O  c #120604",
"+  c #180704",
"@  c #140906",
"#  c #1A0A06",
"$  c #140D0A",
"%  c #1C0D0A",
"&  c #181107",
"*  c #16110D",
"=  c #1C120D",
"-  c #161310",
";  c #1C1511",
":  c #1E1914",
">  c #1D1B18",
",  c #220C07",
"<  c #280D07",
"1  c #220E0A",
"2  c #290F09",
"3  c #24120D",
"4  c #2A130E",
"5  c #23180D",
"6  c #29190E",
"7  c #31150E",
"8  c #241511",
"9  c #2B1612",
"0  c #231A15",
"q  c #2B1A15",
"w  c #251D19",
"e  c #2B1E19",
"r  c #311612",
"t  c #331A15",
"y  c #3A1C14",
"u  c #331E19",
"i  c #3A1E19",
"p  c #2B2014",
"a  c #26211C",
"s  c #2C221C",
"d  c #352215",
"f  c #3D2017",
"g  c #33221C",
"h  c #3B231C",
"j  c #33291F",
"k  c #3C291F",
"l  c #2D2621",
"z  c #2E2924",
"x  c #332621",
"c  c #3B2621",
"v  c #342A24",
"b  c #3B2B24",
"n  c #352D29",
"m  c #3A2E29",
"M  c #3D3127",
"N  c #37312C",
"B  c #3C322B",
"V  c #3E3630",
"C  c #3F3834",
"Z  c #481E14",
"A  c #42241C",
"S  c #4A251D",
"D  c #462D1F",
"F  c #4B2A1F",
"G  c #432621",
"H  c #482620",
"J  c #432B25",
"K  c #4B2B24",
"L  c #432E29",
"P  c #4B2E29",
"I  c #423025",
"U  c #4C3526",
"Y  c #43332C",
"T  c #4B342C",
"R  c #4C392D",
"E  c #503027",
"W  c #53352D",
"Q  c #423631",
"!  c #4B3531",
"~  c #443A33",
"^  c #493F37",
"/  c #4B3C34",
"(  c #473E39",
")  c #4A3F39",
"_  c #4A3E39",
"`  c #533630",
"'  c #523632",
"]  c #583732",
"[  c #503D34",
"{  c #523C37",
"}  c #513F35",
"|  c #543C34",
" . c #5B3A34",
".. c #533E39",
"X. c #593D39",
"o. c #613E38",
"O. c #4F4035",
"+. c #4C4038",
"@. c #4A413C",
"#. c #4D413A",
"$. c #544236",
"%. c #57423D",
"&. c #54453D",
"*. c #5F423B",
"=. c #5C443C",
"-. c #5B493E",
";. c #664035",
":. c #62453C",
">. c #66463F",
",. c #64463E",
"<. c #6A473E",
"1. c #64483D",
"2. c #69483F",
"3. c #4E4541",
"4. c #4F4842",
"5. c #514540",
"6. c #5D4641",
"7. c #544A43",
"8. c #5A4B42",
"9. c #564F4A",
"0. c #574E49",
"q. c #5B4E49",
"w. c #5D5248",
"e. c #5C534C",
"r. c #5E5451",
"t. c #664741",
"y. c #644643",
"u. c #604A43",
"i. c #674942",
"p. c #634B43",
"a. c #6A4E44",
"s. c #6A4C44",
"d. c #674D49",
"f. c #6A4E4B",
"g. c #724E45",
"h. c #635246",
"j. c #63544C",
"k. c #6E524D",
"l. c #6C544D",
"z. c #705347",
"x. c #70514B",
"c. c #72544D",
"v. c #635751",
"b. c #6F5750",
"n. c #6A5750",
"m. c #635C56",
"M. c #665E57",
"N. c #655953",
"B. c #6B5C54",
"V. c #665E5A",
"C. c #6C5E59",
"Z. c #705753",
"A. c #7A5750",
"S. c #725853",
"D. c #735B54",
"F. c #785D56",
"G. c #7B5F59",
"H. c #6F6057",
"J. c #6D615A",
"K. c #706159",
"L. c #73655E",
"P. c #7F635B",
"I. c #7D625C",
"U. c #726761",
"Y. c #736A64",
"T. c #756D65",
"R. c #716963",
"E. c #7E6F66",
"W. c #7C6E66",
"Q. c #7C756F",
"!. c #7F726E",
"~. c #845E57",
"^. c #816058",
"/. c #82625A",
"(. c #88665E",
"). c #826761",
"_. c #846963",
"`. c #876B64",
"'. c #856864",
"]. c #896C64",
"[. c #8E6B64",
"{. c #846D68",
"}. c #897169",
"|. c #8D726C",
" X c #857974",
/* pixels */
"M 9 X O & 6 p : ; a a - X X o - : o     o X X O X X $ a o o o o @ O O O # L { L 3 @ # % 6 r % , , , 1 # + O % u 1 $   X X   * 3 ",
"n g 9 & & 5 ; M M j > : - o o o X X o     . . X . O ; % . o X o . . + 1 1 t G t $ # # % , , # , % # % @ % + % e % O O % * @ * 8 ",
"v g q & p p p z s a - a ; * o o * e h b l q e L / 9 l * . - - 0 x u t 1 r u e # # @ # # + + # , 2 4 9 8 u t t i r + @ @ . . @ r ",
".     X n +.@.J.C +.O.+.z a > > ; q g h u u.Z.].'.c e 9 1 x c k./.I.f.y.h e h i s b g e % , 3 1 % % 1 % e Z r H ' ! b O       8 ",
"X X X ; 9.Q.T.T.M.w.E.K.+.a p : w j u 3 % S.{.).|.%.1 1 2 u t *./.).~.'.k.G Z A f $.O.J 8 3 3 5 #       9 Z h y.t.s.:.u r 3   % ",
"v p & #.L.J.w.e.v.a s s a a p * = w 0 # 3 t.S.|.|.g.y r r 1 1 t  .A.~.[.G.H Z H J b v q 8 u q 8 3 # % 9 t t ..x.o.Z.>.' t %   $ ",
"j a 0 V O.I O.-.B * o o 0 0 & o * w q 1 2 h h W ' H r t y t 2 2 i A G E J t y h j B B x v s q e 8 8 u Z u r X.Z.f.G.*.X.g $ % 9 ",
"a j s : ; = p a 0 * w p p g 5 * p w 9 4 # O 3 i u , , 2 t y 9 9 8 X . u i 3 e u s C ~ m g g g J J { c e h c G P J c 3 8 9 + 0 8 ",
"M.V p ; * & & a s l z s 6 q & % ; # & , # # 3 r t 1 O O # % 3 q 9 # 1 q 9 0 3 % 0 v &.1.E g 8 h J '.l.d.J T H ;.G # O # * u # o ",
"h.r.a X X X 0 j b B B p 8 w l B ~ m n Y 6 = 9 9 9 t O O O $ 3 g q 0 q 2 = q 1 # v l.2.<.t.b e b { |.l.D.L u T <.K @ $ X o ; $ . ",
"J.Y.N o     j g j M I j p a e.L.E.J.~ ^ c q 8 s % 8 3 q b Y d d v w 8 8 , y y < j D.z.2.b.*.u - 8 e g L e J g e * % $ . > @.n $ ",
"n j s > = s M a j B M j s B w.h.j.&.I I R v 0 5 3 % 5 q 0.=.D U L ; ; = 3 U I 5 q ^ | U L J 9 # ; ; ; w 3 G q % $ * ; * 5.U._ X ",
"n j j j p j M p I j k k B &.O.U / m d g d q w q q g b Q N.$.I R T 7.n & $ q b q = g h t i t r e ! T k v q t d = * : z : q.C.5.$ ",
"j j a s C +.&.N n V v 0 0 s z : : p v ~ ~ ^ ~ g x _ &./ Y h b b b ~ n l p a ; 0 s q r # % 8 8 Y | H F t 9 s 0 % w a : o - ; - X ",
"- ; ; n L.N.j.-.+.w.^ = & : Q +.~ M s m I Y P b ^ -./ k e w g g m j v B s w - - 0 t 9 % % e ! ~ c t 9 3 3 s a * = ; : a ; $ X . ",
"= & o ; 9.h.w.&.Q #.~ p J M Y w.J.l.Y m j d s M h.=.J t 3 0 p x O./ Y ~ b e m ! s 4 4 u 9 .. Xd.3 # # & * = = # X : r.r.n - $ o ",
": : ; % v &.^ 8.&.B s q g g y J d.S.$.m q & w / p.$.b g d J ^ B T c G c c w e l c t t u u ] b.6.u t 8 ; s w 0 : a 4.M.j.#.- - a ",
"a & X O * w.8.j.O.h u q 5 u i h h L T ~ b p 9 J R &.~ j I J R m g i y y g q * a J i t h r h c L x c l e s : : : z e.+.+.w.N : M ",
"N p $ O $ v B ~ v g 6 0 q y y y 9 r h j k g v j m Y v e b M m v t h r 2 r 4 3 8 e q 0 w - o * e e w ; l z a : : : N B ~ @.+.a j ",
"/ D 8 X X @ & : : s q q g 9 r 1 # % $ & w n Y j s m g e v M _ ~ b g u 4 1 9 u i c c e x x n l n v v N n l j #.w.e.l & - - ; * * ",
"8 8 r 4 q % 3 8 e w g b v g y y 1 % @ * a p s m 8.Y 0 w l n Q m n x c c r 8 L ' c r 8 e e B w - - a j a a N j.j.7.v o . * - - a ",
"q Z y Z i 2 1 0 q g b b d t y y q % % - $ # $ m K.j.e x s g b n v c h J h r y.Z.! t 3 e l u x x v q 5 = s 4.L.N.&.n > o o a : a ",
"4 y y 7 2 , % 9 4 h h g t 6 r y i 8 % q 8 # = &.B.D.Y w ; 5 q x x e 9 2 t P f.F.u.1 O . . O 8 ; > : 5 * j -.N.n.O.p p * X X   * ",
"1 7 r 2 1 # % @ O % 3 9 6 0 9 i G q 9 9 e 8 0 / _ 8.v ; & = l u q 8 8 % r ' X.X.P 9 , 4 8 a v n * ; = ; > V N a p ; & o o o * ; ",
"3 t u t 3 O . . . 1 2 @ o X J f.b.L O + 2 3 8 ; 8 g n x c x c L _ 5.c q 2 9 9 9 9 3 8 c i 9 - m - o w ; - 0 0 * & = * $ w a ; * ",
"3 2 9 8 ; o . O O 1 @ @ X O 0 g J 8 + % 1 0 8 X @ 8 q q m c r r L ! i 9 u u 7 i 8 O # r i 1 O @ > w 0 a x e 5 X * #   X B ~ p 0 ",
"% O 1 8 % $ O + # 1 3 0 q # O , + O $ 1 8 u e 0 8 8 ; q u g i 9 y y 2 # r 8 9 9 q u u c u 7 2 + $ e 0 q s x e $ e e $ : R $.w $ ",
"q q 9 e g 2 O O # 3 & % 1 % % 1 + O . ; e u t 2 8 u g h i u u t i 2 1 , % $ $ # 1 c c h t i 9 r 9 8 e l v x j q h p e ^ $.$.s X ",
"9 u t x G 1 O O # & & O # % % % + O O $ q u 9 # 2 u u t u i 9 1 9 i 7 7 9 c L c q 8 0 9 u i i t u c m N V V s p j p a #.O.~ j & ",
"% 3 1 1 % % 2 % # = 3 % O # 1 % 1 1 1 8 u 4 < < 8 9 9 2 % 9 4 % 1 y 7 2 1 L A i %     . u P K S c x a w : a 5 p p a ; 0 w v s ; ",
"0 % 9 8 $ % 9 1 # % 9 3 % 3 9 2 , 1 2 9 u t 9 t q u 9 9 9 9 % # 1 i t r 9 r 2 7 e % % % c E K K i ; - w N j = p p j j v s p w l ",
"a ( 6.] c % 3 9 4 , 3 % 9 3 4 7 4 r 2 t t c i K i r 9 y K J = @ 1 9 1 4 4 2 8 1 e 8 3 @ u h h J 0 o X $ j p 5 5 * v b M g q j $.",
"l r.6.X.L % $ @ @ O % 2 4 1 4 2 7 8 9 r 2 e % O . % 1 i G ! c % + O O % 1 2 8 3 % * @ @ X X * $ . X - w ; @ * l m 3.B B s p $.8.",
"n V.6.! L % .       % 2 7 4 < , i t 9 r r e 0 - 8 3 9 h G m c 8 $ # % 1 q e u t 9 l 0 $ * > % # @ ; w w - @ @ ; x Q v w 0 k ` R ",
"n ( c e x - * @ % * 8 % 1 8 % 3 t e - 8 9 8 l g i 8 r t h u t 9 8 8 r < 4 q h y q w - - ; w w 9 9 Q _ _ m ; $ o ; n - - 3 k h m ",
"n l 0 % e l w 8 g n 8 $ # @ @ % @ X . a g r L c 9 x m c g 9 3 $ # # 9 , # 0 x u 0 a a n a - * q G 6.6.5.C x i e 8 q v b p 0 u q ",
"; w > ; n x 8 x % % ; % = @ o ; w 0 ; a c c P e 9 c ' r.! 8 O X . X 3 # # & j B s w 0 s l w 0 e J / ! _ m g i 9 1 q j b s a 3 = ",
"- ; w - l ; O 8 o . - ; $ % o X 8 0 * w v t u r G ! P y.! * % w l v 0 @ # X o w : w 0 w ; ; % 0 n _ 5.3.n X 8 1 3 g I v ; : = & ",
"> > ; X   . e ! Q v w w 0 9 s V ..Q m z e 9 r H X.' c G e $ * w x v 0 & > C z a p s ; s > - $ > 0 e e w 8 * r 3 3 t b w * * * X ",
"w w > o X o - q l x e e 0 8 b h.u._ c 1 # 8 9 i H G x i e t P x g 6 g l 3. XY.l ; 0 * ; 0 w ; $ O O # . $ % 0 % 3 4 9 3 o o o o ",
"0 ; $ X . .   @ 0 b b t # % L 8.%.J u 7 r A u y y y h i 8 3 8 x h t h v &.L.J.V v s > a l w w ; $ O # % $ o $ $ 5 1 9 8 $ $ ; - ",
"e 3 - w x x u q 0 L Y i e 0 h U T R g h y A y r t y y r 9 + 8 ! M g b v B ( @.V B v a j 0 ; ; $ % # O % # % $ 8 q b w $ * o $ X ",
"% O ; x J A i t t i g t r x u h L b q g u e r 9 t i 7 r 9 1 % e s w w : o - a s p ; a n s ; : $ % % O % % q u x x / s     X     ",
"s 9 9 u q u q % # $ $ % u m x l m g q e i Z i u t t 9 1 8 c m Q Y g v n n z N v l x v l l _ -.] q O # 1 + @ X o - ; - % ; ; o o ",
"3 9 d g t y f 8 % * $ 0 e u x _ _ 8 3 e u u u t e i c x q Q q.~ b q s p m s * ; w s 0 0 v %.*.K t O . + #       = k u t 8 8 8 q ",
"q d u t t t y 4 8 % # O O O q d.n.r 8 q 9 u u t c L Q ! v v.U.8.n q 0 v v n n v s , % 0 Y t.o.H u % @ X o @ o $ d f A A 9 % 8 l ",
"h y r r 9 7 y y 1 1 8 3 + + Z 6.b.G 1 + + 0 e g e s s n _ J.!.L.v $ & X $ w : 0 0 5 & 8 J  .o.K q % % * * 8 8 = h y y 4 0 % q s ",
"% 1 1 , 3 3 y J 9 9 9 9 2 % i G W t % O % u x e 8 8 w v ..q.V.e.B w p a w n N * ; * & $ t t 4 1 # @ @ X o $ * % 7 t 7 3 0 8 $ $ ",
"5 9 O .   u y.f.' + + 1 1 , # # 9 t r t t n Q ( 7.Y u q e u v n v l ~ +.d ; n > X ; % + % % # O % O @ 8 w = # 3 g c u 9 @ @ . o ",
"1 % O O . 1 g L e + + 1 1 1 O @ % 2 8 i u i b Q q.Y 9 x c s M z $ = s Y p & o : a w 8 4 8 8 $ % %     n ~ q = 8 0 s q % O   o * ",
", 3 8 q # O % , O O , 1 4 4 1 1 % # 1 t t i u L ^ g = e q g x v n v M m j j ; * a e 0 8 t u * 8 q % % i E 9 $ % % ; 1 # @ & # = ",
"5 = # % # # , # O   + 1 2 4 , 1 r u i i u x n ~ j p 0 8 $ * * ; Q L M k I v v v q l l e u x 0 i q 8 h S S t X 8 q 9 2 9 5 ; & = ",
"& & O O O # % % O O . 1 2 2 , 1 t g c t i g p j Y h t 9 m ~ Q s s w a v B Q n B V C n x V n 8 u q # G J G i % 3 9 t t i 5 @ & & ",
"= 0 0 $ # 3 % % 1 , 1 9 r 2 r 8 8 9 3 % 3 q 0 w I h 7 , L U Y w .   . w { %.| ~ V a ; % e 0 6 6 2 + % 1 q 8 % % 1 1 9 % % 3 3 & ",
"% e p 8 0 u e 1 1 4 7 u c c c x b q e g v w = w B m t 9 9 4 t g 8 ; % e ' W ..( a % % u t % 1 9 8 9 2 9 0 % 8 8 ; 9 0 # # 1 3 1 ",
"5 3 8 e q 9 t 9 r q u x m Q @._ m q J / &.0 $ w n s u q 2 6 5 q 0 1 # q i c P s O   . 1 3 + 1 + 1 t r r 9 3 S q c *.' H # % t 4 ",
"$ ; q q 2 9 2 r 9 u c s l w - $ 0 8 g I +.Q w * - * 8 5 3 5 8 8 % $ @ . X % O .   O 8 $ . O 1 r i y q r 0 P ' 4 ! X.] P $ @ @ @ ",
". ; g g e q 2 t i 2 9 u g 0 > w a s Y / ~ Q s ; ; : 0 6 9 g h u 0 0 O O $ $ $ O + 1 8 # + . + 8 i 9 1 % g X.P e ' ] P L 1 O     ",
"* a w w l 8 1 r 9 # 1 9 0 l m n s g j Y M k j s s b d 2 3 r i u 0 @ @ $ % 8 8 9 i A G c # @ O $ e % O % h Y c t c h 9 t % @ $ * ",
"V w $ % ; X @ O     3 r 9 b m e g b B ~ v a ; = = p p , 3 q x 0 8 8 e e @ + 8 L ] ` P c e i 9 q q 9 r 6 0 g l e 9 1 # % 1 1 8 e ",
": : - = ; . $ 1 1 1 % t t P b g m ^ j.e.s * X o o 0 5 = % w N r ; 8 8 8 % 8 e G L G P n x c 9 8 8 8 r 8 8 8 = * 8 ; % 8 r 1 9 ; ",
"  $ % @ # . . % 1 + $ w r g x ~ 0.&.N.0.> ; - : - ; * & % o 0 % 1 ; 8 = % ; > 9 G P P i o w 9 0 u Z u $ + + O $ $ w $ 8 % @ 8 @ ",
"x 8 0 1 , , 2 9 X . o o $ 0 Q V.r.~ +.N * o - ; ; * * - - ; w = 8 % 8 0 $ O % % 9 8 ; 1 $ t e 8 t i 9 O o O X $ - % X .   w 3.( ",
"e 0 ; % + 1 1 $         o w 5.N.9.~ a :       * : * * o $ - - $ % = e ; % X o O . % X . $ 8 3 % 2 1 2 O . . X % 8 % o X X % l x "
};
